<svg width="127" height="20" xmlns="http://www.w3.org/2000/svg">
    <title>
        Kenny Tran
    </title>
    <path d="M0 20V0h2.865v9.13h.056L7.107 0h2.865L6.067 8.006 10.702 20H7.67l-3.26-8.876-1.545 2.893V20H0zm14.207 0V0h8.54v2.697h-5.674v5.87h4.943v2.697h-4.943v5.87h5.674V20h-8.54zm12.532 0V0h2.752l4.326 12.05h.056V0h2.866v20h-2.697L29.66 7.978h-.056V20h-2.865zm14.728 0V0h2.753l4.326 12.05h.056V0h2.865v20h-2.696L44.389 7.978h-.057V20h-2.865zm17.51 0v-8.455L55.044 0h3.034l2.303 7.95h.056L62.741 0h3.033l-3.932 11.545V20h-2.865zm19.81 0V2.697h-3.315V0h9.495v2.697h-3.315V20h-2.865zM91.344 2.697v6.236h1.63c.505 0 .907-.066 1.207-.197.3-.15.534-.356.702-.618.15-.262.253-.58.31-.955.055-.393.084-.843.084-1.348 0-.506-.029-.946-.085-1.32a2.686 2.686 0 00-.337-1.012c-.356-.524-1.03-.786-2.022-.786h-1.49zM88.479 20V0h4.606c3.371 0 5.057 1.957 5.057 5.87 0 1.18-.188 2.182-.562 3.006-.356.824-.993 1.49-1.91 1.995L98.76 20h-3.034l-2.669-8.54h-1.713V20h-2.865zm19.994-6.994l-1.405-7.248h-.056l-1.405 7.248h2.866zM101.394 20l4.466-20h2.388l4.466 20h-2.865l-.843-4.298h-3.904L104.259 20h-2.865zm14.866 0V0h2.753l4.326 12.05h.056V0h2.865v20h-2.697l-4.382-12.022h-.056V20h-2.865z"
        fill="#F1F1F1" />
</svg>