<svg width="160" height="80" xmlns="http://www.w3.org/2000/svg" xmlns:xlink="http://www.w3.org/1999/xlink"><defs><path id="a" d="M0 0h160v80H0z"/></defs><g fill="none" fill-rule="evenodd"><mask id="b" fill="#fff"><use xlink:href="#a"/></mask><g mask="url(#b)" fill="#FFF" fill-rule="nonzero"><path d="M38.808 40.992h4.056V47.6h-4.056v-6.608ZM23.64 47.6h4.064v-6.608H23.64V47.6ZM10.4 44.464a6.496 6.496 0 0 1-5.768-3.472H.52A10.104 10.104 0 0 0 10.344 48c3.25.12 6.372-1.272 8.456-3.768l-2.656-2.52a7.08 7.08 0 0 1-5.744 2.752Zm47.088-.296a3.728 3.728 0 0 1-2.784-1.08 3.448 3.448 0 0 1-.592-2.096h-4a7.2 7.2 0 0 0 1.6 4.648A7.264 7.264 0 0 0 57.384 48c1.056.017 2.11-.118 3.128-.4l-.8-3.672a9.344 9.344 0 0 1-2.208.24h-.016Zm54.4 0a6.896 6.896 0 0 1-5.488-2.848v-.328h-4.056v16.8h4.056V45.84a8.904 8.904 0 0 0 6.056 2.16 10.4 10.4 0 0 0 5.048-1.312 10.4 10.4 0 0 0 4.552-5.664H117.6a6.584 6.584 0 0 1-5.696 3.144h-.016Zm17.784-3.2 2.128 4.488-5.4 12.336h4.288l7.304-16.8-8.32-.024ZM64.8 47.6h4.056v-6.608H64.8V47.6Zm22.92-3.408a6.064 6.064 0 0 1-5.432-3.2h-4.384a10.4 10.4 0 0 0 19.648 0h-4.384a6.08 6.08 0 0 1-5.44 3.176l-.008.024ZM0 37.624v-.04c0-6.024 4.096-10.4 9.76-10.4s9.6 4.52 9.6 10.44v.04L0 37.624ZM4.256 35H15.2a5.6 5.6 0 0 0-5.272-4.352A5.848 5.848 0 0 0 4.256 35Zm23.448 2.624v-3.8a7.408 7.408 0 0 1 5.76-2.848 5.32 5.32 0 0 1 4.136 1.96c.72.888 1.176 2.096 1.176 4.648v.04h4.064c0-3.344-.688-5.376-1.968-6.944a9.304 9.304 0 0 0-7.272-3.536 8.648 8.648 0 0 0-6.032 2.352V27.6h-3.96v10.024h4.096Zm22.4 0h4.056v-6.456h6.4v-3.632h-6.4V22h-4.056v5.536h-5.112v3.632h5.112v6.456Zm18.728 0v-3.28a6.72 6.72 0 0 1 5.408-3.368 6.528 6.528 0 0 1 1.6.16l.488-3.896a8.64 8.64 0 0 0-1.6-.128 7.424 7.424 0 0 0-6.024 2.712v-2.288H64.8v10.048l4.032.04Zm12.576 0v-.04c0-3.664 2.584-6.608 6.32-6.608s6.32 2.944 6.32 6.608v.04h4.064v-.04a10.352 10.352 0 1 0-20.696 0v.04h3.992Zm24.984 0v-3.8a7.12 7.12 0 0 1 5.696-2.848 6.4 6.4 0 0 1 6.456 6.608v.04h4.056v-.04a10.544 10.544 0 0 0-5.168-9.184 9.536 9.536 0 0 0-4.912-1.272 9.32 9.32 0 0 0-6.256 2.256V27.6h-3.928v10.024h4.056Zm33.112 0 4.384-10.024h-4.256l-4.392 10.056 4.264-.032Zm-7.144 0L127.584 27.6H123.2l4.8 10.056 4.36-.032ZM140.84 45.808H160v2.224h-19.16z"/></g></g></svg>