<svg width="160" height="80" xmlns="http://www.w3.org/2000/svg" xmlns:xlink="http://www.w3.org/1999/xlink"><defs><path id="a" d="M0 0h160v80H0z"/></defs><g fill="none" fill-rule="evenodd"><mask id="b" fill="#fff"><use xlink:href="#a"/></mask><g mask="url(#b)" fill="#FFF" fill-rule="nonzero"><path d="M15.156 34.472c3.974 0 5.995 1.817 6.197 5.518v22.742h9.026V40.124c.068-3.7 2.089-5.517 6.063-5.517 3.974 0 5.995 1.817 6.197 5.517v18.302c0 2.826 1.482 4.239 4.446 4.44h4.648V41.942c.067-10.16-4.985-15.206-15.156-15.206-4.58 0-8.084.942-10.643 2.893-2.56-2.019-6.063-3.028-10.643-3.028C5.119 26.6 0 31.646 0 41.806v20.926h9.094V39.99c.067-3.7 2.088-5.518 6.062-5.518ZM67.876 34.025c-3.204 0-4.976.817-5.453 2.52h-9.066c1.09-6.675 5.794-9.945 14.11-9.945 9.951 0 14.995 3.27 15.2 9.945v12.26c0 9.945-5.999 14.373-15.746 15.054-8.656.681-14.654-3.338-14.654-11.307.204-8.65 6.475-10.967 15.609-11.852 3.885-.477 5.862-1.635 5.862-3.61-.205-2.044-2.113-3.065-5.862-3.065Zm-2.113 22.478c5.044 0 8.11-2.998 8.11-8.106v-3.338c-2.112.886-4.566 1.635-7.224 2.18-3.613.681-5.453 2.384-5.453 5.04.204 2.861 1.704 4.224 4.567 4.224ZM92.78 21.519v10.655c2.312-3.709 5.713-5.53 10.202-5.53 9.59.337 14.351 6.542 14.351 18.681 0 11.87-5.577 17.872-16.732 18.074-11.222.068-16.868-5.26-16.868-15.983V17h4.557c2.993 0 4.49 1.551 4.49 4.519Zm7.685 13.15c-4.897 0-7.413 3.373-7.686 10.252-.068 7.216 2.381 10.858 7.55 10.858 5.17 0 7.754-3.642 7.754-10.858-.204-6.88-2.72-10.251-7.618-10.251ZM122.57 17h-4.703v45.867h9.066V21.384c0-2.36-1.977-4.384-4.363-4.384ZM159.4 52.1c-1.966 7.617-6.847 11.833-15.661 11.833-10.848-.34-16.272-6.664-16.272-18.904s5.491-18.361 16.407-18.429c11.39 0 16.747 7.004 16.069 21.08h-23.188c.34 5.509 2.712 8.297 7.12 8.297 2.101 0 4.067-.884 5.83-2.584.814-.884 1.83-1.292 3.051-1.292h6.644ZM143.74 34.013c-3.865 0-6.17 2.448-6.848 7.209h13.492c-.542-4.76-2.78-7.209-6.644-7.209Z"/></g></g></svg>