<svg width="160" height="80" xmlns="http://www.w3.org/2000/svg" xmlns:xlink="http://www.w3.org/1999/xlink"><defs><path id="a" d="M0 0h160v80H0z"/></defs><g fill="none" fill-rule="evenodd"><mask id="b" fill="#fff"><use xlink:href="#a"/></mask><g mask="url(#b)" fill="#FFF" fill-rule="nonzero"><path d="m0 56.618 1.091-.145c2.835-.363 3.126-1.091 3.126-2.98V30.304L.074 25.872v-.874L15.7 21l-.144 8.205h.074a15.44 15.44 0 0 1 12.428-7.694c4.288 0 10.903 1.817 10.903 11.048v20.933c0 1.89.217 2.618 3.052 2.98l1.092.146v1.305H23.179v-1.309l1.092-.145c2.835-.363 3.126-1.092 3.126-2.98V34.302c0-4.718-2.256-6.616-5.161-6.616a8.047 8.047 0 0 0-6.464 3.707v22.098c0 1.89.22 2.618 3.053 2.98l1.09.146v1.305H0v-1.305ZM45.145 40.19c0-11.631 7.559-18.681 19.335-18.681 11.922 0 19.41 7.052 19.41 18.68 0 11.488-7.562 18.536-19.41 18.536-11.776 0-19.335-7.05-19.335-18.535m26.53 0c0-12.431-2.906-16.718-7.195-16.718-4.142 0-7.124 4.433-7.124 16.718 0 12.209 2.98 16.572 7.124 16.572 4.29 0 7.196-4.361 7.196-16.572M90.068 47.677V26.889c0-1.963-.29-2.617-3.126-2.98l-1.092-.22v-1.23h15.773v23.474c0 4.718 2.18 6.616 5.159 6.616a8.029 8.029 0 0 0 6.397-3.707V26.89c0-1.963-.219-2.617-3.126-2.98l-1.025-.22v-1.23h15.702v31.033c0 1.89.29 2.616 3.126 2.907l1.026.144v1.308l-15.555.29.148-7.196h-.148c-2.76 4.215-7.196 7.778-12.5 7.778-4.218 0-10.76-1.817-10.76-11.048M133.397 56.618l-1.091-11.776h.8c8.867 10.54 10.537 11.922 13.3 11.922a4.749 4.749 0 0 0 5.379-4.941c0-2.692-1.744-4.58-5.522-6.107l-5.598-2.326c-4.798-1.963-8.431-5.38-8.431-11.194 0-6.544 6.107-10.685 13.083-10.685 3.902.066 7.792.454 11.63 1.16l1.026 10.688h-.726c-8.504-8.578-10.256-9.959-12.211-9.959a4.548 4.548 0 0 0-4.718 4.578c0 2.981 2.326 4.579 5.89 6.179l5.015 2.035c4.578 1.963 8.793 5.596 8.793 11.487 0 6.47-5.45 11.05-13.743 11.05a47.159 47.159 0 0 1-12.866-2.108"/></g></g></svg>