<svg width="160" height="80" xmlns="http://www.w3.org/2000/svg" xmlns:xlink="http://www.w3.org/1999/xlink"><defs><path id="a" d="M0 0h160v80H0z"/></defs><g fill="none" fill-rule="evenodd"><mask id="b" fill="#fff"><use xlink:href="#a"/></mask><g mask="url(#b)" fill="#FFF" fill-rule="nonzero"><path d="M42.592 50.67c0-5.77-3.15-10.216-11.16-10.216h-8.567v20.434h8.568c8.009 0 11.16-4.446 11.16-10.217Zm-5.83 0c0 4.035-2.267 5.536-5.417 5.536H28.43v-11.07h2.915c3.15 0 5.417 1.501 5.417 5.535ZM43.925 60.888h16.194v-4.652H49.49v-3.504h9.334v-4.417H49.49v-3.209h10.364v-4.652H43.925zM78.97 47.55c0-5.153-3.297-7.096-8.42-7.096h-8.863v20.434h5.565v-6.242h3.298c5.123 0 8.42-1.943 8.42-7.096Zm-5.77 0c0 2.002-.943 2.827-3.21 2.827h-2.738v-5.654h2.738c2.267 0 3.21.825 3.21 2.827ZM79.578 45.224h6.448v15.664h5.565V45.224h6.448v-4.77H79.578zM95.727 58.176a3.345 3.345 0 0 0 3.346 3.346c1.85 0 3.36-1.497 3.36-3.346a3.37 3.37 0 0 0-3.36-3.361c-1.85 0-3.346 1.511-3.346 3.36Zm.646 0c0-1.527 1.203-2.774 2.7-2.774s2.715 1.247 2.715 2.774c0 1.526-1.218 2.759-2.715 2.759-1.497 0-2.7-1.233-2.7-2.76Zm1.13 1.658h1.056v-1.145h.602l.631 1.145h1.145l-.763-1.35c.352-.147.616-.543.616-.983 0-.778-.499-1.145-1.35-1.145h-1.937v3.478Zm2.216-2.319c0 .279-.176.396-.514.396h-.646v-.733h.646c.338 0 .514.088.514.337ZM9.6 37.21c5.554 0 9.04-2.6 9.04-6.735 0-3.368-2.216-5.11-5.672-5.82l-4.43-.915c-1.773-.355-2.305-.916-2.305-1.832 0-1.004 1.034-1.831 2.895-1.831 2.068 0 3.574.886 3.722 2.747h5.495c0-4.904-4.136-6.824-9.247-6.824C4.195 16 .62 18.452.62 22.44c0 3.367 2.216 5.11 5.672 5.82l4.431.915c1.773.354 2.304.916 2.304 1.831 0 1.3-1.27 2.039-3.279 2.039-2.274 0-3.929-1.182-4.047-3.309H.207c.118 4.609 3.25 7.474 9.394 7.474ZM20.685 36.855h5.583v-7.916h8.39v7.916h5.583V16.354h-5.583v7.77h-8.39v-7.77h-5.583zM63.634 26.605C63.634 20.225 59.676 16 52.88 16c-6.794 0-10.752 4.224-10.752 10.605 0 6.38 3.958 10.605 10.752 10.605 6.795 0 10.753-4.224 10.753-10.605Zm-5.879 0c0 3.427-1.86 5.938-4.874 5.938-3.013 0-4.874-2.511-4.874-5.938 0-3.427 1.861-5.938 4.874-5.938s4.874 2.511 4.874 5.938ZM82.864 23.474c0-5.17-3.308-7.12-8.448-7.12h-8.892v20.501h5.583v-6.262h3.309c5.14 0 8.448-1.95 8.448-7.12Zm-5.79 0c0 2.008-.945 2.836-3.22 2.836h-2.747v-5.672h2.748c2.274 0 3.22.827 3.22 2.836ZM82.918 21.14h6.47v15.715h5.583V21.14h6.469v-4.786H82.918zM115.456 36.855h5.849l-7.12-20.5h-7.355l-7.119 20.5h5.73l1.035-3.308h7.946l1.034 3.308Zm-4.992-16.01 2.57 8.3h-5.17l2.6-8.3ZM122.686 36.855h15.42V32.04h-9.837V16.354h-5.583zM139.942 36.855h5.583v-5.228l2.776-3.102 5.2 8.33H160l-7.534-11.963 7.475-8.538h-6.795l-7.621 8.774v-8.774h-5.583zM13.293 40.346H8.744L0 64.658h4.52z"/></g></g></svg>