<svg width="160" height="80" xmlns="http://www.w3.org/2000/svg" xmlns:xlink="http://www.w3.org/1999/xlink"><defs><path id="a" d="M0 0h160v80H0z"/></defs><g fill="none" fill-rule="evenodd"><mask id="b" fill="#fff"><use xlink:href="#a"/></mask><g mask="url(#b)" fill="#FFF" fill-rule="nonzero"><g transform="translate(0 32)"><path d="M6.787 6.3c1.772.597 4.054 1.557 4.054 4.589 0 3.201-2.539 4.76-5.166 4.76C3.137 15.65.512 14.177 0 11.1l3.415-.938c.105 1.676 1.3 2.327 2.304 2.306.833-.022 1.623-.556 1.623-1.39 0-1.024-1.154-1.45-2.37-1.941C3.093 8.367.617 7.406.617 4.44c0-2.967 2.39-4.43 4.804-4.43 2.069 0 4.202 1.09 4.95 3.395L7.32 4.535c-.17-.981-1.09-1.45-1.859-1.45-.768 0-1.494.447-1.494 1.259 0 1.123 1.389 1.466 2.819 1.956ZM13.829 3.525V.323h12.125v3.202h-4.311v11.782H18.14V3.525zM42.515 15.307h-4.097l-3.422-5.678h-1.578v5.678H29.9V.323h6.916c3.223 0 4.845 2.112 4.845 4.248a4.344 4.344 0 0 1-3.202 4.184l4.056 6.552Zm-4.46-10.352a1.394 1.394 0 0 0-1.495-1.437h-3.137v2.924h3.01c1.087.007 1.621-.762 1.621-1.487ZM56.323 12.297h-5.89l-1.239 3.01h-3.9L51.952.323h2.86l6.659 14.984h-3.91l-1.239-3.01Zm-1.322-3.188-1.623-3.905-1.619 3.905h3.242ZM62.641 3.525V.323h12.124v3.202h-4.311v11.782h-3.501V3.525zM91.408 6.26v9.047h-3.523V8.614l-5.313-2.177v8.86h-3.513V.323h3.522v2.486zM102.618.01c4.44 0 7.363 3.522 7.363 7.792 0 4.332-2.924 7.855-7.363 7.855-4.44 0-7.323-3.523-7.323-7.855 0-4.277 2.904-7.792 7.323-7.792Zm0 12.253c2.26 0 3.714-1.88 3.714-4.42 0-2.541-1.454-4.46-3.714-4.46s-3.693 1.916-3.693 4.46c0 2.543 1.446 4.413 3.693 4.413v.007ZM125.858 9.672c0 3.415-2.155 5.987-5.931 5.987-3.777 0-5.935-2.562-5.935-5.987V.332h3.48v9.18c0 1.494.718 2.754 2.455 2.754 1.736 0 2.454-1.26 2.454-2.754V.323h3.477v9.35ZM136.594 6.3c1.772.597 4.056 1.557 4.056 4.589 0 3.201-2.54 4.76-5.165 4.76-2.54 0-5.165-1.472-5.678-4.55l3.415-.938c.108 1.676 1.303 2.327 2.306 2.306.831-.022 1.621-.556 1.621-1.39 0-1.024-1.152-1.45-2.368-1.941-1.88-.769-4.356-1.73-4.356-4.696 0-2.967 2.395-4.44 4.804-4.44 2.071 0 4.205 1.09 4.952 3.396l-3.053 1.13c-.17-.982-1.088-1.451-1.856-1.451-.769 0-1.495.448-1.495 1.26 0 1.132 1.387 1.475 2.817 1.965ZM154.927 12.105v3.202h-9.902V.323h9.902v3.202h-6.381v2.634h5.122v3.19h-5.122v2.754zM160 13.793a1.537 1.537 0 1 1-1.53-1.496 1.501 1.501 0 0 1 1.53 1.496Zm-2.69 0a1.159 1.159 0 0 0 1.987.847c.215-.224.33-.525.32-.835a1.154 1.154 0 1 0-2.307 0v-.012Zm.922.784h-.34v-1.495c.19-.034.382-.05.575-.045.18-.014.36.023.52.108.095.082.149.203.146.33a.386.386 0 0 1-.312.345v.019c.153.06.259.2.276.364.014.13.05.256.107.374h-.373a1.27 1.27 0 0 1-.117-.364c-.03-.166-.12-.24-.312-.24h-.163l-.007.604Zm0-.848h.165c.192 0 .348-.062.348-.218s-.1-.228-.321-.228a.84.84 0 0 0-.192.017v.429Z"/><circle cx="86.746" cy="10.951" r="1"/></g></g></g></svg>