<svg width="160" height="80" xmlns="http://www.w3.org/2000/svg" xmlns:xlink="http://www.w3.org/1999/xlink"><defs><path id="a" d="M0 0h160v80H0z"/></defs><g fill="none" fill-rule="evenodd"><mask id="b" fill="#fff"><use xlink:href="#a"/></mask><g mask="url(#b)" fill="#FFF" fill-rule="nonzero"><path d="M11.04 23.288v3.008h-.224a3.552 3.552 0 0 0-.256-1.024 1.872 1.872 0 0 0-.464-.672 1.6 1.6 0 0 0-.688-.384 3.392 3.392 0 0 0-.944-.112H6.64v9.808a2.704 2.704 0 0 0 .256 1.472c.294.287.694.437 1.104.416h.448v.352h-5.44V35.8h.448c.443.04.877-.146 1.152-.496.183-.44.25-.92.192-1.392v-9.808H3.2a4.8 4.8 0 0 0-1.024.08 1.6 1.6 0 0 0-.752.32 1.6 1.6 0 0 0-.48.672 4.368 4.368 0 0 0-.288 1.12H.368v-3.008H11.04Zm4.624 5.952h5.968v-4.4a3.2 3.2 0 0 0 0-.48.832.832 0 0 0-.16-.288 1.344 1.344 0 0 0-.352-.208 1.936 1.936 0 0 0-.864-.224h-.464v-.352h5.52v.352h-.448a1.6 1.6 0 0 0-.384 0c-.132.023-.26.06-.384.112a1.072 1.072 0 0 0-.304.224.688.688 0 0 0-.208.304 4.24 4.24 0 0 0-.112 1.248V34.6c.013.157.04.312.08.464a.608.608 0 0 0 .144.288c.081.077.173.141.272.192.267.158.57.24.88.24h.448v.352h-5.504V35.8h.464c.435.03.86-.141 1.152-.464.195-.459.272-.96.224-1.456v-3.936h-5.968V34.6c-.02.154-.02.31 0 .464a.832.832 0 0 0 .16.288c.078.08.17.145.272.192.26.16.559.244.864.24h.464v.352h-5.44V35.8h.464c.44.039.87-.14 1.152-.48.21-.455.293-.958.24-1.456V24.84c.02-.16.02-.32 0-.48a.64.64 0 0 0-.16-.288 1.2 1.2 0 0 0-.352-.208 1.936 1.936 0 0 0-.88-.224h-.464v-.352h5.52v.352h-.464a1.6 1.6 0 0 0-.384 0c-.127.02-.251.058-.368.112a1.44 1.44 0 0 0-.32.224.656.656 0 0 0-.192.304 4.096 4.096 0 0 0-.112 1.248v3.712Zm14.096-5.248v5.072h2.832c.34.012.68-.026 1.008-.112.227-.049.434-.166.592-.336.15-.162.255-.36.304-.576.066-.273.104-.551.112-.832h.352v4.464h-.352a5.424 5.424 0 0 0-.128-.768 1.792 1.792 0 0 0-.128-.432 1.12 1.12 0 0 0-.56-.528 1.952 1.952 0 0 0-.512-.144 4.208 4.208 0 0 0-.688 0H29.76v4.192a4.08 4.08 0 0 0 0 1.04l.096.16a.432.432 0 0 0 .16.128h3.856l.656-.112c.173-.05.336-.132.48-.24.163-.112.318-.234.464-.368.22-.226.418-.473.592-.736.268-.302.514-.623.736-.96h.384l-1.12 3.2h-9.92V35.8h.832c.133-.018.262-.056.384-.112a1.44 1.44 0 0 0 .32-.224.576.576 0 0 0 .192-.288c.1-.408.138-.829.112-1.248v-8.4a2.816 2.816 0 0 0-.24-1.504 1.456 1.456 0 0 0-1.184-.384h-.464v-.352h9.92v2.816h-.224c0-.336-.144-.624-.208-.848a2.144 2.144 0 0 0-.24-.544 1.312 1.312 0 0 0-.304-.352 1.872 1.872 0 0 0-.4-.224 4.368 4.368 0 0 0-1.344-.144H29.76ZM54.144 23l.256 4.368h-.288a6.8 6.8 0 0 0-.72-1.6 4.288 4.288 0 0 0-.96-1.152 3.488 3.488 0 0 0-1.232-.72 4.512 4.512 0 0 0-1.424-.208 4.224 4.224 0 0 0-2.288.624 4.32 4.32 0 0 0-1.6 1.936 7.52 7.52 0 0 0-.496 1.6 11.44 11.44 0 0 0-.16 2.048 7.392 7.392 0 0 0 .56 3.024c.167.417.406.8.704 1.136.284.328.62.61.992.832.373.224.778.39 1.2.496a5.6 5.6 0 0 0 2.72.016 3.2 3.2 0 0 0 1.056-.496c.34-.241.651-.52.928-.832.288-.336.608-.72.96-1.168l.304.176a8.4 8.4 0 0 1-1.04 1.488 6 6 0 0 1-1.216 1.024 5.104 5.104 0 0 1-1.424.608 6.752 6.752 0 0 1-1.6.192 5.792 5.792 0 0 1-4.96-2.368 6.816 6.816 0 0 1-1.216-4.112 8 8 0 0 1 .32-2.224 6.4 6.4 0 0 1 3.2-3.984c.46-.225.943-.402 1.44-.528a6.96 6.96 0 0 1 1.6-.176c.96.006 1.903.242 2.752.688a1.6 1.6 0 0 0 .56.208.64.64 0 0 0 .448-.256c.15-.185.248-.405.288-.64h.336Zm5.264 6.528h.528c.541.005 1.08-.07 1.6-.224a3.472 3.472 0 0 0 1.168-.576c.306-.248.547-.566.704-.928.16-.351.242-.734.24-1.12.004-.377-.06-.75-.192-1.104a2.656 2.656 0 0 0-.576-.848 2.448 2.448 0 0 0-.864-.56 2.912 2.912 0 0 0-1.12-.208h-.64l-.848.144v5.424Zm9.136 6.608h-3.44L60.8 30.12h-1.344v3.744a2.688 2.688 0 0 0 .256 1.504c.282.297.68.455 1.088.432h.496v.352h-5.552V35.8h.48c.455.04.897-.16 1.168-.528a3.2 3.2 0 0 0 .208-1.408V25.56a2.656 2.656 0 0 0-.256-1.504 1.44 1.44 0 0 0-1.12-.416h-.48v-.352h4.688a11.664 11.664 0 0 1 3.024.304c.32.095.623.24.896.432.278.186.526.412.736.672.219.257.392.549.512.864.124.332.184.685.176 1.04.01.376-.05.75-.176 1.104-.13.353-.33.674-.592.944A3.408 3.408 0 0 1 64 29.4c-.444.23-.918.397-1.408.496l2.656 3.68a6.928 6.928 0 0 0 1.6 1.696 4.24 4.24 0 0 0 1.696.528v.336Z"/><path d="m77.008 31.128-2.192-5.184-2.24 5.184h4.432Zm.256.704h-4.976l-.88 2.032a3.2 3.2 0 0 0-.32 1.104.768.768 0 0 0 0 .288.768.768 0 0 0 .224.24c.14.081.29.14.448.176.254.052.51.09.768.112v.352h-4V35.8a2.32 2.32 0 0 0 1.04-.368c.205-.202.377-.434.512-.688.211-.377.398-.767.56-1.168L75.2 23h.336L80 33.672c.15.367.32.725.512 1.072.128.231.29.441.48.624.149.143.33.247.528.304.224.066.455.103.688.112v.352H77.12V35.8a3.2 3.2 0 0 0 .64-.096c.142-.028.278-.082.4-.16a.928.928 0 0 0 .24-.256.624.624 0 0 0 0-.288c.024-.18.024-.363 0-.544 0-.208-.16-.48-.288-.784l-.848-1.84Zm9.136-7.84v5.04h2.336c.234.028.47.028.704 0 .182-.045.348-.139.48-.272.146-.155.256-.34.32-.544a4.8 4.8 0 0 0 .176-.88h.352v4.288h-.352a3.2 3.2 0 0 0-.096-.832 1.168 1.168 0 0 0-.272-.544.944.944 0 0 0-.512-.32 2.8 2.8 0 0 0-.8-.096H86.4V34.6c-.012.155-.012.31 0 .464a.832.832 0 0 0 .16.288c.078.08.17.145.272.192.267.158.57.24.88.24h.464v.352h-5.44V35.8h.464c.437.043.867-.13 1.152-.464.21-.455.293-.958.24-1.456V24.824a2.752 2.752 0 0 0-.112-.464.608.608 0 0 0-.144-.288 2.016 2.016 0 0 0-.272-.208 1.936 1.936 0 0 0-.864-.224h-.448v-.352h9.6V26.2h-.208a5.184 5.184 0 0 0-.416-1.12 2.032 2.032 0 0 0-.576-.64 2 2 0 0 0-.784-.288 7.04 7.04 0 0 0-1.088-.08l-2.88-.08Zm18.08-.704v3.008h-.224a4.192 4.192 0 0 0-.256-1.024 2.096 2.096 0 0 0-.448-.672 1.712 1.712 0 0 0-.688-.384 3.44 3.44 0 0 0-.96-.112h-1.808v9.808a2.56 2.56 0 0 0 .256 1.472c.296.283.696.428 1.104.4h.448v.352h-5.456V35.8h.464c.443.04.877-.146 1.152-.496.186-.433.258-.907.208-1.376v-9.824h-1.6a4.928 4.928 0 0 0-1.024.08 1.6 1.6 0 0 0-.736.32 1.6 1.6 0 0 0-.496.672 4.368 4.368 0 0 0-.288 1.12h-.352v-3.008h10.704ZM115.616 35.8v.352h-5.52V35.8h.464a1.36 1.36 0 0 0 1.152-.464c.227-.455.327-.964.288-1.472V24.824c.012-.154.012-.31 0-.464a.624.624 0 0 0-.16-.288 1.344 1.344 0 0 0-.272-.208 1.824 1.824 0 0 0-1.008-.224h-.464v-.352h5.52v.352h-.416a1.376 1.376 0 0 0-1.152.464 2.72 2.72 0 0 0-.24 1.456v9.04c-.02.154-.02.31 0 .464a.64.64 0 0 0 .16.288c.078.08.17.145.272.192a1.6 1.6 0 0 0 .96.256h.416Zm4.48-6.272h.528c.541.005 1.08-.07 1.6-.224a3.472 3.472 0 0 0 1.168-.576c.306-.248.547-.566.704-.928.16-.351.242-.734.24-1.12a2.768 2.768 0 0 0-.208-1.104 2.464 2.464 0 0 0-1.44-1.408 2.768 2.768 0 0 0-1.088-.16h-.656l-.832.144-.016 5.376Zm9.136 6.608h-3.44l-4.352-6.016h-1.344v3.744a2.688 2.688 0 0 0 .256 1.504c.282.297.68.455 1.088.432h.496v.352h-5.52V35.8h.496c.454.036.895-.163 1.168-.528a3.2 3.2 0 0 0 .192-1.392v-8.32a2.656 2.656 0 0 0-.256-1.504 1.44 1.44 0 0 0-1.104-.416h-.496v-.352h4.704a11.44 11.44 0 0 1 3.008.304 3.392 3.392 0 0 1 2.16 1.968 3.2 3.2 0 0 1 .176 1.04c.004.377-.06.751-.192 1.104a2.88 2.88 0 0 1-.576.944c-.286.3-.622.549-.992.736-.444.23-.918.397-1.408.496l2.656 3.68a6.928 6.928 0 0 0 1.6 1.696 4.16 4.16 0 0 0 1.68.544v.336Zm5.824-.336v.352H129.6V35.8h.464c.434.034.857-.145 1.136-.48.21-.455.293-.958.24-1.456V24.824c.02-.154.02-.31 0-.464a.512.512 0 0 0-.24-.288 1.2 1.2 0 0 0-.32-.208 1.936 1.936 0 0 0-.88-.224h-.4v-.352h5.52v.352h-.464a1.376 1.376 0 0 0-1.152.464c-.205.456-.282.96-.224 1.456v9.04c-.012.155-.012.31 0 .464a.832.832 0 0 0 .16.288c.078.08.17.145.272.192.26.16.559.244.864.24l.48.016Zm9.392-12.8v4.432h-.352a5.664 5.664 0 0 0-.608-2.032 2.848 2.848 0 0 0-.56-.672 3.2 3.2 0 0 0-.704-.528 4.56 4.56 0 0 0-.816-.32 3.2 3.2 0 0 0-.864-.128c-.312 0-.622.06-.912.176a2.688 2.688 0 0 0-.72.432c-.2.18-.364.397-.48.64a1.6 1.6 0 0 0-.176.72 1.6 1.6 0 0 0 .256.928c.176.281.404.526.672.72.32.25.663.47 1.024.656l1.264.672 1.456.784a6.4 6.4 0 0 1 1.216.864c.348.3.635.665.848 1.072.216.449.32.943.304 1.44.002.469-.096.932-.288 1.36a3.664 3.664 0 0 1-.832 1.136c-.377.344-.817.61-1.296.784a4.48 4.48 0 0 1-1.6.288h-1.024l-.448-.112-.608-.24-.464-.16-.416-.112h-.512a.512.512 0 0 0-.384.144c-.118.176-.184.38-.192.592h-.352v-4.512h.352c.066.407.162.808.288 1.2.085.303.209.593.368.864.145.242.329.458.544.64.225.198.472.37.736.512.286.14.586.247.896.32.324.083.657.126.992.128a3.2 3.2 0 0 0 1.072-.176c.292-.106.563-.263.8-.464.22-.182.394-.412.512-.672.115-.251.175-.524.176-.8a1.872 1.872 0 0 0-.256-.976 2.56 2.56 0 0 0-.688-.752 7.312 7.312 0 0 0-1.008-.64l-1.216-.688-1.392-.8a7.456 7.456 0 0 1-1.184-.848 3.904 3.904 0 0 1-.816-1.072 2.992 2.992 0 0 1-.304-1.408c0-.448.098-.89.288-1.296a3.44 3.44 0 0 1 .784-1.072 3.6 3.6 0 0 1 1.184-.736c.48-.187.99-.285 1.504-.288a5.456 5.456 0 0 1 2.176.496c.234.126.489.208.752.24a.56.56 0 0 0 .4-.144c.144-.166.233-.373.256-.592h.352Zm5.952 6.24h5.92v-4.4a3.2 3.2 0 0 0 0-.48.832.832 0 0 0-.16-.288 1.344 1.344 0 0 0-.272-.208 1.936 1.936 0 0 0-.944-.224h-.464v-.352H160v.352h-.448a1.6 1.6 0 0 0-.384 0c-.132.023-.26.06-.384.112a1.072 1.072 0 0 0-.384.272.688.688 0 0 0-.208.304 4.24 4.24 0 0 0-.112 1.248V34.6c.013.157.04.312.08.464a.608.608 0 0 0 .144.288c.081.077.173.141.272.192.267.158.57.24.88.24H160v.352h-5.52V35.8h.464c.435.03.86-.141 1.152-.464.195-.459.272-.96.224-1.456v-3.936h-5.92V34.6c-.012.155-.012.31 0 .464a.832.832 0 0 0 .16.288c.078.08.17.145.272.192.26.16.559.244.864.24h.464v.352h-5.472V35.8h.512c.437.043.867-.13 1.152-.464.21-.455.293-.958.24-1.456V24.84c.02-.16.02-.32 0-.48a.816.816 0 0 0-.144-.288 2.016 2.016 0 0 0-.272-.208 1.936 1.936 0 0 0-.976-.224h-.448v-.352h5.504v.352h-.464a1.6 1.6 0 0 0-.384 0c-.127.02-.251.058-.368.112a1.44 1.44 0 0 0-.32.224.656.656 0 0 0-.32.352 4.096 4.096 0 0 0-.112 1.248l.112 3.664ZM15.2 44.968v.288a1.408 1.408 0 0 0-.384 0 .992.992 0 0 0-.304.112 1.12 1.12 0 0 0-.256.224c-.091.11-.171.227-.24.352a8.816 8.816 0 0 0-.512 1.328l-3.04 8.768h-.32l-2.496-6.896-2.464 6.944h-.288L1.6 47a11.2 11.2 0 0 0-.464-1.2.912.912 0 0 0-.384-.4A1.6 1.6 0 0 0 0 45.24v-.288h4.032v.288H3.84c-.225-.02-.45.037-.64.16a.608.608 0 0 0-.208.48 1.6 1.6 0 0 0 0 .448c.07.284.162.562.272.832l2.208 6.24 1.808-5.28-.576-1.6a4.096 4.096 0 0 0-.304-.56 1.856 1.856 0 0 0-.32-.384 1.392 1.392 0 0 0-.352-.176 1.776 1.776 0 0 0-.544-.08v-.288h4.24v.288h-.288a.912.912 0 0 0-.656.08.672.672 0 0 0-.208.528c.046.491.17.972.368 1.424l2.08 6.048 2.08-6.08c.182-.44.3-.903.352-1.376a.528.528 0 0 0-.352-.544 2.192 2.192 0 0 0-.864-.16v-.288l3.264.016Zm3.52 5.04h5.072V46.28a2.096 2.096 0 0 0 0-.4.544.544 0 0 0-.128-.256 1.6 1.6 0 0 0-.24-.176 1.472 1.472 0 0 0-.72-.192h-.4v-.288h4.688v.288h-.704l-.32.112c-.099.046-.19.105-.272.176a.624.624 0 0 0-.176.272 3.904 3.904 0 0 0-.08 1.056v7.648c-.02.127-.02.257 0 .384.026.093.07.18.128.256a1.6 1.6 0 0 0 .24.16c.225.127.478.193.736.192h.384v.304h-4.704v-.304h.4c.362.028.717-.113.96-.384.187-.388.26-.82.208-1.248V50.6H18.72v3.952a1.904 1.904 0 0 0 0 .384c.026.088.07.17.128.24.07.071.151.13.24.176.225.127.478.193.736.192h.384v.304h-4.592v-.304H16c.373.036.74-.106.992-.384.171-.392.237-.822.192-1.248V46.28a2.096 2.096 0 0 0 0-.4.768.768 0 0 0-.128-.256 1.04 1.04 0 0 0-.24-.176 1.488 1.488 0 0 0-.736-.192h-.464v-.288h4.672v.288h-.72l-.368.144c-.099.046-.19.105-.272.176a.8.8 0 0 0-.176.272 3.552 3.552 0 0 0-.096 1.056l.064 3.104Zm13.6 5.536v.304h-4.672v-.304h.384c.368.039.733-.104.976-.384.171-.392.237-.822.192-1.248v-7.648c.01-.133.01-.267 0-.4a.848.848 0 0 0-.128-.24 1.6 1.6 0 0 0-.272-.224 1.488 1.488 0 0 0-.736-.192h-.384v-.288h4.64v.288H32c-.366-.03-.723.12-.96.4-.187.382-.26.81-.208 1.232v7.664a1.904 1.904 0 0 0 0 .384c.02.09.064.174.128.24.07.071.151.13.24.176.219.127.467.193.72.192l.4.048Zm7.952-10.832v3.76H40a4.416 4.416 0 0 0-.528-1.712 2.048 2.048 0 0 0-.464-.576 2.848 2.848 0 0 0-.608-.448 3.2 3.2 0 0 0-.688-.272 2.832 2.832 0 0 0-.752-.064 2.048 2.048 0 0 0-.768.144 2.176 2.176 0 0 0-.608.384 1.44 1.44 0 0 0-.4.528 1.376 1.376 0 0 0-.144.624 1.44 1.44 0 0 0 .208.784c.152.237.348.443.576.608.267.205.55.387.848.544l1.072.576c.448.224.848.448 1.248.672.37.205.718.446 1.04.72.284.263.522.571.704.912.187.378.28.795.272 1.216-.003.403-.09.8-.256 1.168a3.2 3.2 0 0 1-.704.96 3.52 3.52 0 0 1-1.088.656 3.984 3.984 0 0 1-1.392.24h-.864l-.384-.096-.48-.16-.384-.144-.368-.096h-.448a.384.384 0 0 0-.304.112.928.928 0 0 0-.176.496h-.304V52.36h.304a6.4 6.4 0 0 0 .24 1.024c.082.255.19.502.32.736a2.4 2.4 0 0 0 .464.544c.186.17.396.31.624.416.237.129.49.226.752.288.273.064.552.096.832.096.31.004.618-.044.912-.144.25-.085.484-.215.688-.384a1.6 1.6 0 0 0 .432-.576 1.6 1.6 0 0 0 .144-.672 1.6 1.6 0 0 0-.208-.88 2.48 2.48 0 0 0-.592-.64 4.8 4.8 0 0 0-.848-.528c-.32-.176-.672-.368-1.024-.592l-1.184-.672a6.256 6.256 0 0 1-1.008-.72 3.28 3.28 0 0 1-.688-.88 2.56 2.56 0 0 1-.256-1.2c-.002-.376.08-.748.24-1.088a3.2 3.2 0 0 1 .656-.928 3.2 3.2 0 0 1 1.008-.608 3.376 3.376 0 0 1 1.28-.24 4.576 4.576 0 0 1 1.84.432c.2.102.417.167.64.192.123.01.244-.03.336-.112.117-.148.194-.325.224-.512h.288Zm6.544 5.104 4.016 3.984a7.44 7.44 0 0 0 1.696 1.344c.431.228.905.364 1.392.4v.304h-5.184v-.304c.235.02.47-.036.672-.16A.432.432 0 0 0 49.6 55a.592.592 0 0 0 0-.176.224.224 0 0 0 0-.16.848.848 0 0 0-.16-.224l-.336-.368-3.776-3.712v4.144a1.904 1.904 0 0 0 0 .384c.026.088.07.17.128.24.07.071.151.13.24.176.224.129.478.195.736.192h.368v.304h-4.64v-.304h.384c.373.036.74-.106.992-.384.171-.392.237-.822.192-1.248V46.28a2.32 2.32 0 0 0 0-.4.96.96 0 0 0-.128-.256 1.6 1.6 0 0 0-.24-.176 1.488 1.488 0 0 0-.736-.192h-.384v-.288h4.656v.288h-.816l-.32.112a.992.992 0 0 0-.272.176.736.736 0 0 0-.176.256 3.712 3.712 0 0 0-.096 1.056V50.2c.213-.16.453-.368.72-.624l.816-.768.848-.832.752-.752c.224-.24.416-.432.56-.608l.304-.336c.122-.163.194-.357.208-.56a.416.416 0 0 0-.16-.336.896.896 0 0 0-.576-.144h-.208v-.288h4.016v.288a3.6 3.6 0 0 0-.64.096l-.336.128-.384.224-.464.336c-.196.15-.383.31-.56.48l-3.296 3.312Zm10.416-4.256v4.304h2.4c.286.008.571-.025.848-.096a.992.992 0 0 0 .768-.784c.053-.231.085-.467.096-.704h.304v3.792h-.304c0-.272-.08-.496-.112-.656a1.712 1.712 0 0 0-.112-.368.976.976 0 0 0-.48-.448 2.208 2.208 0 0 0-.416-.112 3.28 3.28 0 0 0-.592 0h-2.4v3.584c-.04.297-.04.599 0 .896a.56.56 0 0 0 0 .128c.037.05.087.088.144.112h3.248c.19-.01.378-.043.56-.096.148-.041.289-.106.416-.192.14-.092.268-.2.384-.32.194-.188.365-.397.512-.624.191-.28.363-.575.512-.88h.32l-.944 2.736h-8.256v-.304h.384a1.136 1.136 0 0 0 .64-.096c.1-.05.192-.114.272-.192a.496.496 0 0 0 .16-.24c.082-.345.115-.701.096-1.056v-7.088a2.352 2.352 0 0 0-.208-1.28 1.264 1.264 0 0 0-.96-.32h-.384v-.288h8.4v2.384H62.4a4.8 4.8 0 0 0-.176-.72 2.128 2.128 0 0 0-.192-.464.912.912 0 0 0-.256-.288 1.856 1.856 0 0 0-.352-.208 3.776 3.776 0 0 0-1.136-.112h-3.056Zm14.48-.592h3.792v.288h-.464l-.352.144c-.13.063-.253.138-.368.224a2.32 2.32 0 0 0-.368.304 3.2 3.2 0 0 0-.352.464 6.56 6.56 0 0 0-.448.656l-2.64 4.128v2.736c-.05.43.027.864.224 1.248.263.246.618.368.976.336H72v.304h-4.64v-.304h.384c.38.04.754-.117.992-.416.152-.37.213-.77.176-1.168v-2.528l-2.992-4.56-.32-.656-.288-.336-.16-.144a1.328 1.328 0 0 0-.272-.192 2.128 2.128 0 0 0-.384-.16 1.216 1.216 0 0 0-.432-.08v-.288h4.672v.288h-.24a1.328 1.328 0 0 0-.352 0 1.056 1.056 0 0 0-.336.128.8.8 0 0 0-.24.224.624.624 0 0 0 0 .32c.081.378.245.733.48 1.04l2.288 3.504 2.128-3.36a2.56 2.56 0 0 0 .496-1.12 2.336 2.336 0 0 0 0-.32.528.528 0 0 0-.176-.24.816.816 0 0 0-.336-.16c-.17-.02-.342-.02-.512 0l-.224-.304Zm17.472-.256.24 3.696h-.24A6.4 6.4 0 0 0 88.576 47a3.84 3.84 0 0 0-.816-.976 3.04 3.04 0 0 0-1.024-.56 4.096 4.096 0 0 0-1.2-.176 3.552 3.552 0 0 0-1.936.544 3.648 3.648 0 0 0-1.344 1.6 5.904 5.904 0 0 0-.416 1.392 9.424 9.424 0 0 0-.144 1.728c-.019.876.14 1.747.464 2.56.151.355.356.684.608.976.247.269.526.506.832.704.323.181.667.32 1.024.416.376.097.763.146 1.152.144.393.003.785-.04 1.168-.128a3.2 3.2 0 0 0 .88-.416c.288-.209.551-.45.784-.72.24-.272.528-.608.816-.992l.256.16c-.25.45-.545.873-.88 1.264a4.8 4.8 0 0 1-1.04.864 4 4 0 0 1-1.2.512 5.536 5.536 0 0 1-1.392.16 4.912 4.912 0 0 1-4.208-2 5.728 5.728 0 0 1-1.104-3.52 6.704 6.704 0 0 1 .272-1.872 5.456 5.456 0 0 1 .816-1.6c.25-.362.546-.69.88-.976a5.248 5.248 0 0 1 1.072-.72 4.624 4.624 0 0 1 1.216-.448c.425-.102.86-.156 1.296-.16a5.184 5.184 0 0 1 2.336.576c.142.1.308.16.48.176a.512.512 0 0 0 .432-.208c.12-.16.203-.347.24-.544l.288-.048Zm6.944.592a2.944 2.944 0 0 0-1.472.352 3.2 3.2 0 0 0-1.088 1.008 5.136 5.136 0 0 0-.672 1.6 9.216 9.216 0 0 0-.224 2.08 9.6 9.6 0 0 0 .224 2.112c.133.567.36 1.108.672 1.6a3.2 3.2 0 0 0 1.072 1.072c.452.261.966.394 1.488.384.484.005.964-.093 1.408-.288.44-.203.825-.51 1.12-.896a4.384 4.384 0 0 0 .752-1.6c.192-.73.283-1.484.272-2.24.006-.742-.07-1.482-.224-2.208a4.688 4.688 0 0 0-.672-1.6 2.96 2.96 0 0 0-2.656-1.392m.144-.592a4.96 4.96 0 0 1 3.68 1.6 5.552 5.552 0 0 1 1.6 4.016 5.728 5.728 0 0 1-1.6 4.112 5.296 5.296 0 0 1-7.6 0 5.808 5.808 0 0 1-1.52-4.144 5.472 5.472 0 0 1 1.776-4.224 5.216 5.216 0 0 1 3.664-1.424m7.936 9.648a.864.864 0 0 1 .352.08c.103.045.195.11.272.192.082.08.152.172.208.272.085.227.085.477 0 .704-.06.097-.13.189-.208.272a.832.832 0 0 1-.272.192.864.864 0 0 1-.352.08.8.8 0 0 1-.336-.08.912.912 0 0 1-.48-.464.816.816 0 0 1 0-.704.832.832 0 0 1 .192-.272.912.912 0 0 1 .288-.192.8.8 0 0 1 .336-.08"/></g></g></svg>